<svg id="Layer_1" data-name="Layer 1" xmlns="http://www.w3.org/2000/svg" viewBox="0 0 32 32"><defs><style>.cls-1{fill:#fff;}</style></defs><title>Artboard 1</title><circle class="cls-1" cx="16" cy="7.81" r="4.94"/><path class="cls-1" d="M28.38,20.38C27,16,22.28,14.57,21.1,14.47H10.92a.65.65,0,0,0-.19,0c-1.49.25-5.69,1.72-7,5.87-.73,2.27-.62,5.45.74,6.09a1.64,1.64,0,0,0,1.2,0C7.07,26,6.78,24.07,8,21.69a26.62,26.62,0,0,1,2.29-3.54V30.89a.68.68,0,0,0,.67.67H21.08a.68.68,0,0,0,.67-.67V18a27.48,27.48,0,0,1,2.38,3.65c1.18,2.38.89,4.28,2.3,4.78a1.64,1.64,0,0,0,1.2,0C29,25.82,29.1,22.65,28.38,20.38Z"/></svg>