<svg id="Layer_1" data-name="Layer 1" xmlns="http://www.w3.org/2000/svg" viewBox="0 0 40.67 32"><defs><style>.cls-1{fill:#fff;}.cls-2{fill:none;stroke:#fff;stroke-miterlimit:10;stroke-width:3px;}</style></defs><title>Artboard 1</title><circle class="cls-1" cx="16" cy="7.81" r="4.94"/><path class="cls-1" d="M28.38,20.38C27,16,22.28,14.57,21.1,14.47H10.92a.65.65,0,0,0-.19,0c-1.49.25-5.69,1.72-7,5.87-.73,2.27-.62,5.45.74,6.09a1.61,1.61,0,0,0,1.2,0c1.34-.57.64-2.65,1.72-5a16.14,16.14,0,0,1,2.87-3.91V30.89a.68.68,0,0,0,.67.67H21.08a.68.68,0,0,0,.67-.67V17.44a16.49,16.49,0,0,1,3,4c1.08,2.38.38,4.46,1.72,5a1.61,1.61,0,0,0,1.2,0C29,25.82,29.1,22.65,28.38,20.38Z"/><line class="cls-2" x1="32.25" y1="5.08" x2="32.25" y2="16"/><line class="cls-2" x1="26.79" y1="10.54" x2="37.71" y2="10.54"/></svg>