<svg id="Layer_1" data-name="Layer 1" xmlns="http://www.w3.org/2000/svg" viewBox="0 0 32 32"><defs><style>.cls-1{fill:#fff;}.cls-2{fill:none;stroke:#fff;stroke-miterlimit:10;stroke-width:2px;}</style></defs><title>Artboard 1</title><circle class="cls-1" cx="5.66" cy="24.38" r="1.96"/><path class="cls-1" d="M10.58,29.38A3.68,3.68,0,0,0,7.74,27H3.6l0,0A3.7,3.7,0,0,0,.77,29.38c-.29.9-.25,2.17.3,2.42a.64.64,0,0,0,.48,0c.53-.23.25-1.05.68-2a6.42,6.42,0,0,1,1.14-1.55v3.52A.23.23,0,0,0,3.6,32H7.71a.23.23,0,0,0,.23-.23V28.21A6.55,6.55,0,0,1,9.12,29.8c.43.95.15,1.77.68,2a.64.64,0,0,0,.48,0C10.82,31.55,10.87,30.28,10.58,29.38Z"/><circle class="cls-1" cx="15.98" cy="24.38" r="1.96"/><path class="cls-1" d="M20.91,29.38A3.68,3.68,0,0,0,18.07,27H13.93l0,0a3.7,3.7,0,0,0-2.79,2.33c-.29.9-.25,2.17.3,2.42a.64.64,0,0,0,.48,0c.53-.23.25-1.05.68-2a6.42,6.42,0,0,1,1.14-1.55v3.52a.23.23,0,0,0,.23.23H18a.23.23,0,0,0,.23-.23V28.21a6.55,6.55,0,0,1,1.18,1.59c.43.95.15,1.77.68,2a.64.64,0,0,0,.48,0C21.15,31.55,21.19,30.28,20.91,29.38Z"/><circle class="cls-1" cx="26.41" cy="24.38" r="1.96"/><path class="cls-1" d="M31.33,29.38A3.68,3.68,0,0,0,28.5,27H24.35l0,0a3.7,3.7,0,0,0-2.79,2.33c-.29.9-.25,2.17.3,2.42a.64.64,0,0,0,.48,0c.53-.23.25-1.05.68-2a6.42,6.42,0,0,1,1.14-1.55v3.52a.23.23,0,0,0,.23.23h4.12a.23.23,0,0,0,.23-.23V28.21a6.55,6.55,0,0,1,1.18,1.59c.43.95.15,1.77.68,2a.64.64,0,0,0,.48,0C31.58,31.55,31.62,30.28,31.33,29.38Z"/><polyline class="cls-2" points="12.48 8.03 12.48 3.25 31.17 3.25 31.17 16 12.48 16 12.48 12.6"/><circle class="cls-1" cx="7.82" cy="7.6" r="2.74"/><path class="cls-1" d="M16.22,6.66a1.11,1.11,0,0,0-.92-.73c-.73-.05-1,.9-2.3,2.42a36.4,36.4,0,0,0-2.38,2.94H5l-.11,0A5.16,5.16,0,0,0,1,14.56c-.4,1.26-.34,3,.41,3.38a.89.89,0,0,0,.67,0c.74-.32.35-1.47,1-2.79A8.94,8.94,0,0,1,4.63,13v7.4a.37.37,0,0,0,.37.37h5.63a.37.37,0,0,0,.37-.37V12.32c.75,0,2.61-1.74,4-3.38h0C15.61,8.28,16.42,7.34,16.22,6.66Z"/></svg>